<?xml version="1.0" encoding="UTF-8" standalone="no"?>
<!DOCTYPE svg PUBLIC "-//W3C//DTD SVG 1.1//EN" "http://www.w3.org/Graphics/SVG/1.1/DTD/svg11.dtd">
<svg width="100%" height="100%" viewBox="0 0 80 58" version="1.1" xmlns="http://www.w3.org/2000/svg" xmlns:xlink="http://www.w3.org/1999/xlink" xml:space="preserve" xmlns:serif="http://www.serif.com/" style="fill-rule:evenodd;clip-rule:evenodd;stroke-linejoin:round;stroke-miterlimit:2;">
    <g transform="matrix(1,0,0,1,18.726,11.19)">
        <path d="M0,25.306C-4.157,25.306 -7.528,21.936 -7.528,17.778C-7.528,13.621 -4.157,10.251 0,10.251C4.157,10.251 7.528,13.621 7.528,17.778C7.528,21.936 4.157,25.306 0,25.306M-2.76,-11.19C-0.935,-8.301 0.138,-4.888 0.138,-1.218C0.138,-1.119 0.124,-1.024 0.123,-0.926C0.078,-0.926 0.034,-0.933 -0.011,-0.933C-10.249,-0.933 -18.553,7.29 -18.711,17.49C-18.713,17.588 -18.726,17.683 -18.726,17.782C-18.726,28.118 -10.347,36.496 -0.011,36.496C10.324,36.496 18.703,28.118 18.703,17.782C18.703,4.126 9.662,-7.415 -2.76,-11.19" style="fill:rgb(31,41,55);fill-rule:nonzero;"/>
    </g>
    <g transform="matrix(1,0,0,1,61.0387,31.705)">
        <path d="M0,4.791C-4.157,4.791 -7.528,1.421 -7.528,-2.737C-7.528,-6.894 -4.157,-10.264 0,-10.264C4.157,-10.264 7.528,-6.894 7.528,-2.737C7.528,1.421 4.157,4.791 0,4.791M-0.216,-21.448C-10.552,-21.448 -18.931,-13.069 -18.931,-2.733C-18.931,-2.635 -18.918,-2.539 -18.916,-2.441C-18.758,7.759 -10.453,15.981 -0.216,15.981C-0.171,15.981 -0.127,15.975 -0.082,15.975C-0.081,16.073 -0.067,16.168 -0.067,16.267C-0.067,19.937 -1.139,23.35 -2.965,26.239C9.457,22.463 18.498,10.923 18.498,-2.733C18.498,-13.069 10.12,-21.448 -0.216,-21.448" style="fill:rgb(31,41,55);fill-rule:nonzero;"/>
    </g>
</svg>
